<svg xmlns="http://www.w3.org/2000/svg" width="28.184" height="26.181" viewBox="0 0 28.184 26.181">
  <g id="shopping-cart" transform="translate(-1 -2)">
    <path id="Path_18894" data-name="Path 18894" d="M7.272,2H1V4.618H5.213l3.624,16.6h.017v.422H25.871V21.31L28.742,8.664l.442-1.428H8.4L7.656,3.818ZM25.854,9.854H8.974l2,9.163h12.8Z" fill="#f9f9f9" fill-rule="evenodd"/>
    <path id="Path_18895" data-name="Path 18895" d="M10.618,23.236A2.618,2.618,0,1,0,8,20.618,2.618,2.618,0,0,0,10.618,23.236Z" transform="translate(2.163 4.944)" fill="#f9f9f9"/>
    <path id="Path_18896" data-name="Path 18896" d="M20.236,20.618A2.618,2.618,0,1,1,17.618,18,2.618,2.618,0,0,1,20.236,20.618Z" transform="translate(4.326 4.944)" fill="#f9f9f9"/>
  </g>
</svg>
