<svg xmlns="http://www.w3.org/2000/svg" width="26" height="26" viewBox="0 0 26 26">
  <g id="phone_1_" data-name="phone (1)" transform="translate(-2 -2)">
    <path id="Path_18772" data-name="Path 18772" d="M25,15A13,13,0,0,0,12,2V4.6A10.4,10.4,0,0,1,22.4,15Z" transform="translate(3)" fill="#006980"/>
    <path id="Path_18773" data-name="Path 18773" d="M2,11.8V5.3A1.3,1.3,0,0,1,3.3,4H9.8a1.3,1.3,0,0,1,1.3,1.3v5.2a1.3,1.3,0,0,1-1.3,1.3H7.2A10.4,10.4,0,0,0,17.6,22.2V19.6a1.3,1.3,0,0,1,1.3-1.3h5.2a1.3,1.3,0,0,1,1.3,1.3v6.5a1.3,1.3,0,0,1-1.3,1.3H17.6A15.6,15.6,0,0,1,2,11.8Z" transform="translate(0 0.6)" fill="#006980"/>
    <path id="Path_18774" data-name="Path 18774" d="M19.206,10.815A7.8,7.8,0,0,1,19.8,13.8H17.46A5.459,5.459,0,0,0,12,8.34V6a7.8,7.8,0,0,1,7.206,4.815Z" transform="translate(3 1.2)" fill="#006980"/>
  </g>
</svg>
