<svg xmlns="http://www.w3.org/2000/svg" width="28" height="22.282" viewBox="0 0 28 22.282">
  <path id="mail_1_" data-name="mail (1)" d="M3.015,6.393A1.556,1.556,0,0,1,4.571,4.838H29.444A1.556,1.556,0,0,1,31,6.393V24.009a3.111,3.111,0,0,1-3.111,3.111H6.111A3.111,3.111,0,0,1,3,24.009V6.9a1.569,1.569,0,0,1,.015-.218Zm3.1,3.459V24.009H27.889V9.853L20.3,17.442a4.667,4.667,0,0,1-6.6,0ZM8.557,7.9H25.444L18.1,15.242a1.556,1.556,0,0,1-2.2,0Z" transform="translate(-3 -4.838)" fill="#006980" fill-rule="evenodd"/>
</svg>
