<svg xmlns="http://www.w3.org/2000/svg" width="22" height="26.552" viewBox="0 0 22 26.552">
  <g id="Group_16091" data-name="Group 16091" transform="translate(-126 -953)">
    <g id="pin" transform="translate(126 953)">
      <path id="Path_18775" data-name="Path 18775" d="M18.05,11.161a4.889,4.889,0,1,1-4.889-4.889A4.889,4.889,0,0,1,18.05,11.161Zm-2.444,0a2.444,2.444,0,1,1-2.444-2.444A2.444,2.444,0,0,1,15.605,11.161Z" transform="translate(-1.828 0.172)" fill="#006980" fill-rule="evenodd"/>
      <path id="Path_18776" data-name="Path 18776" d="M6.415,19.967a11,11,0,1,1,15.552-.382l-7.585,7.967ZM20.2,17.9l-5.9,6.2L8.1,18.2a8.556,8.556,0,1,1,12.1-.3Z" transform="translate(-3 -1)" fill="#006980" fill-rule="evenodd"/>
    </g>
  </g>
</svg>
