<svg xmlns="http://www.w3.org/2000/svg" width="522.26" height="399.313" viewBox="0 0 522.26 399.313">
  <g id="Login-bro_1_" data-name="Login-bro (1)" transform="translate(-44.828 -88.787)">
    <g id="freepik--background-simple--inject-53" transform="translate(44.828 88.787)">
      <path id="Path_18779" data-name="Path 18779" d="M440.431,142.209S389.312,86.2,308.378,88.88s-149.969,56.948-207.044,99.408-72.375,108.411-39.2,159.9S148.188,378,215.5,411.42s80.1,52.4,155.074,44.276,132.053-91.244,123.546-179.783S440.431,142.209,440.431,142.209Z" transform="translate(-44.828 -88.787)" fill="#006980"/>
      <path id="Path_18780" data-name="Path 18780" d="M440.431,142.209S389.312,86.2,308.378,88.88s-149.969,56.948-207.044,99.408-72.375,108.411-39.2,159.9S148.188,378,215.5,411.42s80.1,52.4,155.074,44.276,132.053-91.244,123.546-179.783S440.431,142.209,440.431,142.209Z" transform="translate(-44.828 -88.787)" fill="#fff" opacity="0.7"/>
    </g>
    <g id="freepik--Floor--inject-53" transform="translate(62.95 460.597)">
      <ellipse id="Ellipse_566" data-name="Ellipse 566" cx="252.069" cy="13.751" rx="252.069" ry="13.751" transform="translate(0 0)" fill="#006980"/>
      <ellipse id="Ellipse_567" data-name="Ellipse 567" cx="252.069" cy="13.751" rx="252.069" ry="13.751" transform="translate(0 0)" fill="#fff" opacity="0.3"/>
    </g>
    <g id="freepik--Device--inject-53" transform="translate(284.659 114.452)">
      <rect id="Rectangle_5076" data-name="Rectangle 5076" width="155.772" height="353.014" rx="7.92" transform="translate(11.745)" fill="#fff" stroke="#263238" stroke-linecap="round" stroke-linejoin="round" stroke-width="1"/>
      <path id="Path_18781" data-name="Path 18781" d="M361.98,164.411a2.07,2.07,0,0,1-2.07-2.07V134.6a2.082,2.082,0,0,1,4.152,0v27.693a2.082,2.082,0,0,1-2.082,2.12Z" transform="translate(-199.669 -102.613)" fill="#263238"/>
      <path id="Path_18782" data-name="Path 18782" d="M361.98,182.051a2.07,2.07,0,0,1-2.07-2.07v-15.5a2.082,2.082,0,0,1,4.152,0v15.5A2.082,2.082,0,0,1,361.98,182.051Z" transform="translate(-199.669 -94.553)" fill="#263238"/>
      <rect id="Rectangle_5077" data-name="Rectangle 5077" width="155.772" height="353.014" rx="7.92" fill="#263238" stroke="#263238" stroke-linecap="round" stroke-linejoin="round" stroke-width="1"/>
      <rect id="Rectangle_5078" data-name="Rectangle 5078" width="135.024" height="302.783" transform="translate(10.374 23.503)" fill="#006980"/>
      <line id="Line_82" data-name="Line 82" x2="35.946" transform="translate(57.837 13.827)" fill="none" stroke="#fff" stroke-linecap="round" stroke-linejoin="round" stroke-width="3"/>
      <path id="Path_18783" data-name="Path 18783" d="M292.71,375.365c0,2.476-1.549,4.482-3.466,4.482s-3.454-2.006-3.454-4.482,1.549-4.495,3.454-4.495S292.71,372.876,292.71,375.365Z" transform="translate(-219.662 -38.363)" fill="#fff"/>
      <ellipse id="Ellipse_568" data-name="Ellipse 568" cx="23.414" cy="27.299" rx="23.414" ry="27.299" transform="translate(54.472 44.251)" fill="#fff"/>
      <ellipse id="Ellipse_569" data-name="Ellipse 569" cx="8.888" cy="10.374" rx="8.888" ry="10.374" transform="translate(68.998 50.46)" fill="#263238" stroke="#263238" stroke-linecap="round" stroke-linejoin="round" stroke-width="1"/>
      <path id="Path_18784" data-name="Path 18784" d="M298.484,167.25c-8.888,0-16.164,6.819-16.164,15.237a14.152,14.152,0,0,0,.216,2.336,21,21,0,0,0,31.9,0,15.672,15.672,0,0,0,.2-2.336C314.635,174.069,307.4,167.25,298.484,167.25Z" transform="translate(-220.598 -93.288)" fill="#263238" stroke="#263238" stroke-linecap="round" stroke-linejoin="round" stroke-width="1"/>
      <path id="Path_18785" data-name="Path 18785" d="M330.726,275.524H273.791a5.689,5.689,0,0,1-5.46-5.9V234.474c0-20.252,15.237-36.734,33.928-36.734s33.915,16.507,33.915,36.734v35.121a5.688,5.688,0,0,1-5.447,5.93Zm-51.488-11.809h46.028v-29.2c0-13.739-10.323-24.925-23.008-24.925s-23.02,11.186-23.02,24.925Z" transform="translate(-224.372 -85.063)" fill="#263238"/>
      <rect id="Rectangle_5079" data-name="Rectangle 5079" width="79.054" height="74.788" transform="translate(38.359 166.476)" fill="#fff"/>
      <path id="Path_18786" data-name="Path 18786" d="M308.849,287.6l-5.866-14.107a10.4,10.4,0,0,0,4.127-8.406c0-5.625-4.2-10.158-9.4-10.158s-9.383,4.546-9.383,10.158a10.387,10.387,0,0,0,4.114,8.406L286.59,287.6Z" transform="translate(-219.446 -69.637)" fill="#263238" stroke="#263238" stroke-linecap="round" stroke-linejoin="round" stroke-width="1"/>
      <path id="Path_18787" data-name="Path 18787" d="M276.134,378.658a.724.724,0,0,0,.419.14.66.66,0,0,0,.546-.292l90.634-123.279V252.89l-91.7,124.8a.686.686,0,0,0,.1.965Z" transform="translate(-222.335 -70.187)" fill="#fff"/>
      <path id="Path_18788" data-name="Path 18788" d="M333.888,167.747a.686.686,0,0,0,.152.965.7.7,0,0,0,.965-.152l17.116-23.274V143Z" transform="translate(-206.724 -99.829)" fill="#fff"/>
      <path id="Path_18789" data-name="Path 18789" d="M241.88,322.016,353.77,169.863a.691.691,0,1,0-1.117-.813L241.931,319.68Z" transform="translate(-231.506 -92.879)" fill="#fff"/>
      <path id="Path_18790" data-name="Path 18790" d="M267.948,365.875a.724.724,0,0,0,.559-.279l6.349-8.583a.686.686,0,0,0-.152-.965.7.7,0,0,0-.965.152l-6.349,8.571a.686.686,0,0,0,.14.965.648.648,0,0,0,.419.14Z" transform="translate(-224.663 -42.396)" fill="#fff"/>
      <path id="Path_18791" data-name="Path 18791" d="M364.055,274.17,289.648,375.381a.686.686,0,0,0,.559,1.092.673.673,0,0,0,.559-.279l73.289-99.7Z" transform="translate(-218.657 -64.447)" fill="#fff"/>
    </g>
    <g id="freepik--Character--inject-53" transform="translate(70.818 163.019)">
      <path id="Path_18792" data-name="Path 18792" d="M163.211,166.157a20.176,20.176,0,0,0,1.778-8.888c0-5.676-6.869-8.964-14.945-9.866s-11.656,2.387-10.463,4.482a19.553,19.553,0,0,0,4.482,4.482s-8.076-4.482-13.459-.889,2.4,2.1.9,5.676-9.866,2.1-11.961,11.656,3.885,19.135-1.5,23.325-21.586-1.5-26.309,8.964,1.981,15.11-9.371,21.687-19.63,13-16.342,29.141,14.056,21.789,35.286,16.088,19.732-18.538,26.665-31.744,17.649-10.463,20.938-17.941-.9-16.443-.6-23.325,7.174-8.368,9.866-16.507S163.211,166.157,163.211,166.157Z" transform="translate(-65.297 -147.25)" fill="#263238" stroke="#263238" stroke-linecap="round" stroke-linejoin="round" stroke-width="1"/>
      <path id="Path_18793" data-name="Path 18793" d="M68,232.6a7.949,7.949,0,0,0-.825,3.619" transform="translate(-64.792 -124.227)" fill="none" stroke="#fff" stroke-linecap="round" stroke-linejoin="round" stroke-width="0.5"/>
      <path id="Path_18794" data-name="Path 18794" d="M150.566,158.074s-3.733-4.317,3.454-2.311c9.053,2.539-1.574,13.015-5.663,15.123-8.2,4.2-19.046,2.857-25.395,10.5-5.765,6.907,2.019,14.107-1.435,19.579s-17.281,2.3-21.878,8.888,8.342,20.735-4.9,28.506c-9.574,5.625-20.062,7.784-25.128,12.24" transform="translate(-64.131 -145.096)" fill="none" stroke="#fff" stroke-linecap="round" stroke-linejoin="round" stroke-width="0.5"/>
      <path id="Path_18795" data-name="Path 18795" d="M126.949,177.59a10.374,10.374,0,0,0-.686,5.828c1.143,4.889,7.771,14.107,1.727,19.287s-16.418,4.889-18.132,10.958,1.727,22.741-4.025,30.474-16.989,7.2-23.033,12.38-5.181,8.063-5.181,8.063" transform="translate(-61.985 -139.065)" fill="none" stroke="#fff" stroke-linecap="round" stroke-linejoin="round" stroke-width="0.5"/>
      <path id="Path_18796" data-name="Path 18796" d="M119.168,173.11a25.3,25.3,0,0,0-1.447,2.3" transform="translate(-51.156 -140.274)" fill="none" stroke="#fff" stroke-linecap="round" stroke-linejoin="round" stroke-width="0.5"/>
      <path id="Path_18797" data-name="Path 18797" d="M147.791,232.28l1.46,11.428s7.618,7.618,13.218,12.329,19.948,14.678,19.948,14.678l-7.276,2.07s-23.782-14.094-28.48-15.237-8.215-7.923-9.675-9.98S143.969,230.223,147.791,232.28Z" transform="translate(-46.005 -124.364)" fill="#fff" stroke="#263238" stroke-linecap="round" stroke-linejoin="round" stroke-width="1"/>
      <path id="Path_18798" data-name="Path 18798" d="M159.212,378.972s7.187,6.069,10.158,8.1,6.438,2.946,5.892,4.05-2.032,2.209-9.028,1.27-9.015-3.314-10.31-3.682-4.419.559-6.806-.914,1.4-10.247,1.4-10.247A6.831,6.831,0,0,0,159.212,378.972Z" transform="translate(-42.9 -85.128)" fill="#fff" stroke="#263238" stroke-linecap="round" stroke-linejoin="round" stroke-width="1"/>
      <path id="Path_18799" data-name="Path 18799" d="M175.288,389.427a.94.94,0,0,0,0-.178,32.721,32.721,0,0,1-12.012-1.13c-4.52-1.067-5.854-3.466-10.158-3.466a14.754,14.754,0,0,1-4.965-.813,2.616,2.616,0,0,0,.9,2.273c2.387,1.473,5.523.546,6.806.914s3.314,2.768,10.31,3.682S174.729,390.532,175.288,389.427Z" transform="translate(-42.951 -83.431)" fill="#fff" stroke="#263238" stroke-linecap="round" stroke-linejoin="round" stroke-width="1"/>
      <path id="Path_18800" data-name="Path 18800" d="M139.33,185.4s1.384,9.32-.394,13.078-7.339,4.165-12.088,4.965S111.193,208.4,112.374,219.1s14.869,33.889,14.869,40.429-4.165,9.9-8.723,22.589-3.962,36.277-2.539,51.539a161.13,161.13,0,0,0,5.942,29.725s-11.428,18.437-16.507,26.36S82.56,432.162,82.56,432.162s0,1.181,2.768,1.981a17.372,17.372,0,0,0,5.955.394s34.08-41.025,40.429-47.958S144,367.532,144.79,362s-.19-39.438-.19-39.438,7.123,17.04,12.7,25.763a183.145,183.145,0,0,1,9.295,16.507,99.777,99.777,0,0,0,0,21.586c1.384,9.9.216,41.724,1.6,44.3s6.755,1.5,7.949.317,1.752-8.888,1.752-8.888,2.374-24.125,3.809-35.477,3.809-21.014,2.984-23.592-5.752-30.131-9.523-43.171-15.237-37.457-17.776-43.793-3.974-12.1-3.568-14.081,8.126-13.866,10.158-17.04a15.669,15.669,0,0,0,.394-14.069c-2.374-5.155,0-12.1-.394-16.253s-6.539-5.955-9.714-7.53-4.368-5.155-4.368-8.126a22.855,22.855,0,0,1,1.79-7.263S141.908,185.4,139.33,185.4Z" transform="translate(-60.64 -136.959)" fill="#fff" stroke="#263238" stroke-linecap="round" stroke-linejoin="round" stroke-width="1"/>
      <path id="Path_18801" data-name="Path 18801" d="M146.743,220.519a65.405,65.405,0,0,1-2.6-8.139" transform="translate(-44.029 -129.681)" fill="none" stroke="#263238" stroke-linecap="round" stroke-linejoin="round" stroke-width="1"/>
      <path id="Path_18802" data-name="Path 18802" d="M125.92,236.763s3.581.787,10.755-2.793" transform="translate(-48.944 -123.857)" fill="none" stroke="#263238" stroke-linecap="round" stroke-linejoin="round" stroke-width="1"/>
      <path id="Path_18803" data-name="Path 18803" d="M175.2,300.822c-3.593-12.494-14.247-35.312-17.434-42.841-15.237,5.714-29.483.838-36.175-2.311-.965,2.108-2.006,4.546-3.073,7.491-4.558,12.7-3.962,36.277-2.539,51.539a161.133,161.133,0,0,0,5.942,29.725s-11.428,18.437-16.507,26.36S82.56,413.207,82.56,413.207s0,1.181,2.768,1.981a17.372,17.372,0,0,0,5.955.394s34.08-41.025,40.429-47.958S144,348.577,144.79,343.041s-.19-39.438-.19-39.438,7.123,17.04,12.7,25.763a183.149,183.149,0,0,1,9.295,16.507,99.775,99.775,0,0,0,0,21.586c1.384,9.9.216,41.724,1.6,44.3s6.755,1.5,7.949.317,1.752-8.888,1.752-8.888,2.374-24.125,3.809-35.477,3.809-21.014,2.984-23.592S178.972,313.9,175.2,300.822Z" transform="translate(-60.64 -118.004)" fill="#263238" stroke="#263238" stroke-linecap="round" stroke-linejoin="round" stroke-width="1"/>
      <path id="Path_18804" data-name="Path 18804" d="M221.677,286.192V283.6h2.171V263.26H198.073V283.6h2.171v2.59H198.06v4.723h8.368v-1.587h9.066v1.587h8.368v-4.723Z" transform="translate(-29.485 -115.957)" fill="#006980" stroke="#263238" stroke-linecap="round" stroke-linejoin="round" stroke-width="1"/>
      <path id="Path_18805" data-name="Path 18805" d="M107.56,258.473H257.085a2.26,2.26,0,0,1,2.26,2.26v4.546a2.26,2.26,0,0,1-2.26,2.26H107.56v-9.066Z" transform="translate(-53.897 -117.251)" fill="#006980" stroke="#263238" stroke-linecap="round" stroke-linejoin="round" stroke-width="1"/>
      <rect id="Rectangle_5080" data-name="Rectangle 5080" width="11.618" height="11.796" rx="0.99" transform="translate(150.621 139.863)" fill="#006980" stroke="#263238" stroke-linecap="round" stroke-linejoin="round" stroke-width="1"/>
      <circle id="Ellipse_570" data-name="Ellipse 570" cx="23.605" cy="23.605" r="23.605" transform="translate(7.939 165.242) rotate(-80.7)" fill="#006980" stroke="#263238" stroke-linecap="round" stroke-linejoin="round" stroke-width="1"/>
      <path id="Path_18806" data-name="Path 18806" d="M99.776,265.315a8.253,8.253,0,0,0,4.685-7.212c0-4.635-4.266-8.393-9.536-8.393s-9.536,3.809-9.536,8.393a8.228,8.228,0,0,0,4.685,7.212,8.266,8.266,0,0,0-4.685,7.225c0,4.635,4.266,8.393,9.536,8.393s9.536-3.809,9.536-8.393a8.291,8.291,0,0,0-4.685-7.225Z" transform="translate(-59.877 -119.612)" fill="#fff" stroke="#263238" stroke-linecap="round" stroke-linejoin="round" stroke-width="1"/>
      <path id="Path_18807" data-name="Path 18807" d="M169.06,267.173s7.39,3.124,9.675,3.124,4.927-2.3,6.234-5.079,1.27-4.1.5-3.441l-1.638,1.27s1.27-2.781-.165-2.451a4.012,4.012,0,0,0-2.3,1.968s-.165-2.463-1.473-1.27a15.035,15.035,0,0,0-2.3,2.628s-.165-3.111-.99-2.3-3.923,5.244-3.923,5.244Z" transform="translate(-37.308 -116.683)" fill="#fff" stroke="#263238" stroke-linecap="round" stroke-linejoin="round" stroke-width="1"/>
      <path id="Path_18808" data-name="Path 18808" d="M176.406,263.19s-.5,3.936-2.946,4.6" transform="translate(-36.121 -115.975)" fill="#fff" stroke="#263238" stroke-linecap="round" stroke-linejoin="round" stroke-width="1"/>
      <path id="Path_18809" data-name="Path 18809" d="M179.446,262.16s-1.27,6.222-3.276,7.212" transform="translate(-35.39 -116.253)" fill="#fff" stroke="#263238" stroke-linecap="round" stroke-linejoin="round" stroke-width="1"/>
      <path id="Path_18810" data-name="Path 18810" d="M181.248,262.54a35.387,35.387,0,0,1-2.628,6.565" transform="translate(-34.729 -116.151)" fill="#fff" stroke="#263238" stroke-linecap="round" stroke-linejoin="round" stroke-width="1"/>
      <path id="Path_18811" data-name="Path 18811" d="M142.377,206.757a9.015,9.015,0,0,1-3.962-7.872,22.856,22.856,0,0,1,1.854-7.136s-9.714-6.349-12.291-6.349c0,0,1.384,9.32-.394,13.078a5.968,5.968,0,0,1-2.7,2.692,75.7,75.7,0,0,0,9.46,17.776C137.908,223.429,139.647,213.982,142.377,206.757Z" transform="translate(-49.225 -136.959)" fill="#fff" stroke="#263238" stroke-linecap="round" stroke-linejoin="round" stroke-width="1"/>
      <path id="Path_18812" data-name="Path 18812" d="M121.648,200.62a15.859,15.859,0,0,0-11.428,8.368c-3.911,7.542-21,41.775-19.541,43.819,8.3,11.682,38.511,20.087,41.584,23.16a69.836,69.836,0,0,0,10.069,8.7c3.073,1.955,9.206,1.117,10.323.559s1.955-3.073,0-3.073a3.263,3.263,0,0,1-3.225-2.539c-.279-1.117,3.073,1.117,4.749.279s-3.746-3.9-5.422-5.295-3.073-3.339-5.308-3.339h-6.438s-10.285-7.453-16.507-13a94.432,94.432,0,0,0-15.758-11.5L123.6,215.73" transform="translate(-58.474 -132.853)" fill="#fff" stroke="#263238" stroke-linecap="round" stroke-linejoin="round" stroke-width="1"/>
      <path id="Path_18813" data-name="Path 18813" d="M148.756,268.218c-1.676-1.4-3.073-3.339-5.308-3.339h-6.438s-10.285-7.453-16.507-13a94.431,94.431,0,0,0-15.758-11.5l7.542-12.418a25.23,25.23,0,0,0-12.774-3.644c-5.079,10.59-9.637,21.052-8.888,22.157,8.3,11.682,38.511,20.087,41.584,23.16a69.842,69.842,0,0,0,10.069,8.7c3.073,1.955,9.206,1.117,10.323.559s1.955-3.073,0-3.073a3.263,3.263,0,0,1-3.225-2.539c-.279-1.117,3.073,1.117,4.749.279S150.432,269.627,148.756,268.218Z" transform="translate(-58.486 -126.463)" fill="#fff" stroke="#263238" stroke-linecap="round" stroke-linejoin="round" stroke-width="1"/>
      <path id="Path_18814" data-name="Path 18814" d="M150.793,178c-.99-1.981-.99-3.568-.6-6.349s-1.981-9.523-1.981-9.523h0c-2.425,4.19-9.434,6.679-12.532,7.618-3.416,1.041,1.574,3.4,1.041,6.565s-7.352,4.99-7.352,4.99-1.994-4.1-4.762-4.1-4.736,6.349-3.162,9.714a4.5,4.5,0,0,0,4.965,2.6s-.19,5.955,3.568,7.733a69.834,69.834,0,0,0,12.494,4.558c2.374.394,4.749-.787,5.739-4.355a81.52,81.52,0,0,0,1.587-10.907,25.51,25.51,0,0,0,4.558-3.809C155.313,181.367,151.783,179.983,150.793,178Z" transform="translate(-50.301 -143.236)" fill="#fff" stroke="#263238" stroke-linecap="round" stroke-linejoin="round" stroke-width="1"/>
      <path id="Path_18815" data-name="Path 18815" d="M141.734,175.118c0,1.092-.356,1.968-.787,1.968s-.787-.876-.787-1.968.356-1.968.787-1.968S141.734,174.026,141.734,175.118Z" transform="translate(-45.103 -140.263)" fill="#263238"/>
      <path id="Path_18816" data-name="Path 18816" d="M138.71,172.528s2.108-2.374,3.682-1.841" transform="translate(-45.494 -140.949)" fill="none" stroke="#263238" stroke-linecap="round" stroke-linejoin="round" stroke-width="1"/>
      <path id="Path_18817" data-name="Path 18817" d="M142.783,185.21a5.714,5.714,0,0,1-5.523-1.27" transform="translate(-45.885 -137.353)" fill="none" stroke="#263238" stroke-linecap="round" stroke-linejoin="round" stroke-width="1"/>
      <path id="Path_18818" data-name="Path 18818" d="M83.6,379.74s-4.736,9.5-4.558,10.793,9.574,8.1,13.967,10.488,12.342,2.768,11.783-.546-8.1-5.523-9.942-10.5a80.481,80.481,0,0,1-2.539-7.86,16.278,16.278,0,0,1-8.71-2.374Z" transform="translate(-61.591 -84.537)" fill="#fff" stroke="#263238" stroke-linecap="round" stroke-linejoin="round" stroke-width="1"/>
      <path id="Path_18819" data-name="Path 18819" d="M104.818,398.686a18.551,18.551,0,0,1-9.942-1.409c-6.819-2.958-13.421-9-15.237-10.717a6.806,6.806,0,0,0-.609,2.171c.19,1.27,9.574,8.1,13.967,10.488S105.276,401.937,104.818,398.686Z" transform="translate(-61.592 -82.697)" fill="#fff" stroke="#263238" stroke-linecap="round" stroke-linejoin="round" stroke-width="1"/>
    </g>
  </g>
</svg>
