<svg xmlns="http://www.w3.org/2000/svg" width="32" height="32" viewBox="0 0 32 32">
  <path id="Path_18905" data-name="Path 18905" d="M15.6,6a1.6,1.6,0,0,1,1.6,1.6V14h6.4a1.6,1.6,0,0,1,0,3.2H17.2v6.4a1.6,1.6,0,0,1-3.2,0V17.2H7.6a1.6,1.6,0,0,1,0-3.2H14V7.6A1.6,1.6,0,0,1,15.6,6Z" transform="translate(0.4 0.4)"/>
  <path id="Path_18906" data-name="Path 18906" d="M6.8,34A4.8,4.8,0,0,1,2,29.2V6.8A4.8,4.8,0,0,1,6.8,2H29.2A4.8,4.8,0,0,1,34,6.8V29.2A4.8,4.8,0,0,1,29.2,34ZM5.2,29.2a1.6,1.6,0,0,0,1.6,1.6H29.2a1.6,1.6,0,0,0,1.6-1.6V6.8a1.6,1.6,0,0,0-1.6-1.6H6.8A1.6,1.6,0,0,0,5.2,6.8Z" transform="translate(-2 -2)" fill-rule="evenodd"/>
</svg>
