<svg xmlns="http://www.w3.org/2000/svg" width="33.023" height="45.801" viewBox="0 0 33.023 45.801">
  <g id="noun_Certificate_2189430" transform="translate(-11.489 -3.5)">
    <g id="Group_16184" data-name="Group 16184" transform="translate(12 4)">
      <g id="Group_16183" data-name="Group 16183">
        <path id="Path_18903" data-name="Path 18903" d="M34.972,22.32,39.3,18.1a.8.8,0,0,0-.444-1.365l-5.978-.868L30.2,10.455a.833.833,0,0,0-1.434,0l-2.674,5.417-5.978.868a.8.8,0,0,0-.444,1.365L24,22.32l-1.021,5.954a.8.8,0,0,0,1.16.843l5.349-2.81,5.347,2.81a.8.8,0,0,0,1.159-.843Zm-1.647-.144.818,4.771-4.284-2.252a.8.8,0,0,0-.744,0L24.83,26.947l.818-4.771a.8.8,0,0,0-.23-.708l-3.466-3.378,4.789-.7a.8.8,0,0,0,.6-.438l2.142-4.34,2.142,4.34a.8.8,0,0,0,.6.438l4.789.7-3.466,3.378A.8.8,0,0,0,33.325,22.176Z" transform="translate(-13.486 -5.209)" stroke="#000" stroke-linecap="round" stroke-linejoin="round" stroke-width="1"/>
        <path id="Path_18904" data-name="Path 18904" d="M43.963,44.56,39.192,29.451a15.2,15.2,0,1,0-22.383,0L12.038,44.56a.8.8,0,0,0,1.044.99l5.825-2.184,3.643,5.1a.8.8,0,0,0,.65.334.818.818,0,0,0,.139-.012.8.8,0,0,0,.632-.574l3.84-13.824c.064,0,.125.009.189.009s.125-.009.189-.01l3.84,13.824a.8.8,0,0,0,.632.574.751.751,0,0,0,.139.013.8.8,0,0,0,.65-.335l3.643-5.1,5.825,2.184a.8.8,0,0,0,1.044-.99ZM22.878,46.173l-3.026-4.237a.8.8,0,0,0-.932-.284l-4.861,1.823L18.091,30.7a15.126,15.126,0,0,0,8.09,3.579ZM14.4,19.2A13.6,13.6,0,1,1,28,32.8,13.616,13.616,0,0,1,14.4,19.2ZM37.082,41.651a.8.8,0,0,0-.932.284l-3.026,4.237-3.3-11.892A15.126,15.126,0,0,0,37.91,30.7l4.033,12.773Z" transform="translate(-12 -4)" stroke="#000" stroke-linecap="round" stroke-linejoin="round" stroke-width="1"/>
      </g>
    </g>
  </g>
</svg>
