<svg xmlns="http://www.w3.org/2000/svg" width="20.5" height="14.564" viewBox="0 0 20.5 14.564">
  <g id="menu" transform="translate(-1.75 -4.75)">
    <path id="Path_1025" data-name="Path 1025" d="M2,6A1,1,0,0,1,3,5H21a1,1,0,0,1,0,2H3A1,1,0,0,1,2,6Z" stroke="#000" stroke-width="0.5"/>
    <path id="Path_1026" data-name="Path 1026" d="M2,12.032a1,1,0,0,1,1-1H21a1,1,0,0,1,0,2H3A1,1,0,0,1,2,12.032Z" stroke="#000" stroke-width="0.5"/>
    <path id="Path_1027" data-name="Path 1027" d="M3,17.065a1,1,0,0,0,0,2H21a1,1,0,0,0,0-2Z" stroke="#000" stroke-width="0.5"/>
  </g>
</svg>
