<svg xmlns="http://www.w3.org/2000/svg" width="660.626" height="564.166" viewBox="0 0 660.626 564.166">
  <g id="Group_16086" data-name="Group 16086" transform="translate(-430 -1679)">
    <g id="Questions-cuate" transform="translate(430 1679)">
      <g id="freepik--Floor--inject-56" transform="translate(0 504.28)">
        <path id="Path_18697" data-name="Path 18697" d="M38.37,409.8l82.582-.375,82.582-.14,165.149-.265,165.149.265,82.582.14L699,409.8l-82.582.39-82.582.14-165.149.25-165.149-.25-82.582-.14Z" transform="translate(-38.37 -409.02)" fill="#263238"/>
      </g>
      <g id="freepik--question-mark--inject-56" transform="translate(195.35 0)">
        <path id="Path_18698" data-name="Path 18698" d="M238.171,457.713q0-37.459,12.237-67.317t50.476-52.022q11.487-6.883,28.313-15.608a228.37,228.37,0,0,0,32.886-21.04,120.182,120.182,0,0,0,27.158-28.672,66.116,66.116,0,0,0,11.1-37.881,62.558,62.558,0,0,0-6.087-28.375,64.945,64.945,0,0,0-16.061-20.649,66.9,66.9,0,0,0-23.412-12.627,90.526,90.526,0,0,0-27.158-4.2,78.914,78.914,0,0,0-30.5,5.681,104.4,104.4,0,0,0-24.848,14.531,121.838,121.838,0,0,0-19.9,19.9,218.236,218.236,0,0,0-14.906,21.024H225.95L170.9,184.573a148.541,148.541,0,0,1,26.393-42.142,161.948,161.948,0,0,1,37.459-30.982,175.544,175.544,0,0,1,45.56-19.011A196.3,196.3,0,0,1,330.8,85.93a200.625,200.625,0,0,1,57.375,8.413,145.81,145.81,0,0,1,50.867,26.783,138.912,138.912,0,0,1,36.726,47.043q14.141,28.688,14.141,68.472a147.9,147.9,0,0,1-5.728,43.219,120.525,120.525,0,0,1-16.466,34.057,143.422,143.422,0,0,1-25.238,27.533,289.186,289.186,0,0,1-32.9,23.709q-15.312,9.209-30.592,17.606a184.178,184.178,0,0,0-27.923,18.73A91.338,91.338,0,0,0,330.4,425.218q-8.022,13.392-8.022,32.512Zm1.561,178.228V530.385h84.908V635.942Z" transform="translate(-159.397 -85.93)" fill="#ffc727"/>
        <g id="Group_16085" data-name="Group 16085" transform="translate(11.503 0)" opacity="0.2">
          <path id="Path_18699" data-name="Path 18699" d="M238.171,457.713q0-37.459,12.237-67.317t50.476-52.022q11.487-6.883,28.313-15.608a228.37,228.37,0,0,0,32.886-21.04,120.182,120.182,0,0,0,27.158-28.672,66.116,66.116,0,0,0,11.1-37.881,62.558,62.558,0,0,0-6.087-28.375,64.945,64.945,0,0,0-16.061-20.649,66.9,66.9,0,0,0-23.412-12.627,90.526,90.526,0,0,0-27.158-4.2,78.914,78.914,0,0,0-30.5,5.681,104.4,104.4,0,0,0-24.848,14.531,121.838,121.838,0,0,0-19.9,19.9,218.236,218.236,0,0,0-14.906,21.024H225.95L170.9,184.573a148.541,148.541,0,0,1,26.393-42.142,161.948,161.948,0,0,1,37.459-30.982,175.544,175.544,0,0,1,45.56-19.011A196.3,196.3,0,0,1,330.8,85.93a200.625,200.625,0,0,1,57.375,8.413,145.81,145.81,0,0,1,50.867,26.783,138.912,138.912,0,0,1,36.726,47.043q14.141,28.688,14.141,68.472a147.9,147.9,0,0,1-5.728,43.219,120.525,120.525,0,0,1-16.466,34.057,143.422,143.422,0,0,1-25.238,27.533,289.186,289.186,0,0,1-32.9,23.709q-15.312,9.209-30.592,17.606a184.178,184.178,0,0,0-27.923,18.73A91.338,91.338,0,0,0,330.4,425.218q-8.022,13.392-8.022,32.512Zm1.561,178.228V530.385h84.908V635.942Z" transform="translate(-170.9 -85.93)"/>
        </g>
        <path id="Path_18700" data-name="Path 18700" d="M230.847,457.714q0-37.459,12.237-67.317t50.492-52.022q11.472-6.883,28.3-15.608a227.657,227.657,0,0,0,32.9-21.04,120.464,120.464,0,0,0,27.158-28.672,66.226,66.226,0,0,0,11.082-37.881,62.557,62.557,0,0,0-6.118-28.3,64.946,64.946,0,0,0-16.061-20.649A66.9,66.9,0,0,0,347.424,173.6a90.528,90.528,0,0,0-27.158-4.2,78.789,78.789,0,0,0-30.514,5.6,104.574,104.574,0,0,0-24.864,14.531A121.742,121.742,0,0,0,245,209.437a218.517,218.517,0,0,0-14.921,21.024L163.53,184.573a148.277,148.277,0,0,1,26.393-42.142,161.542,161.542,0,0,1,37.459-30.982,175.636,175.636,0,0,1,45.544-19.011,196.175,196.175,0,0,1,50.539-6.509,200.547,200.547,0,0,1,57.375,8.413,145.669,145.669,0,0,1,50.867,26.783,138.755,138.755,0,0,1,36.726,47.043q14.141,28.688,14.156,68.472a147.886,147.886,0,0,1-5.744,43.219,120.184,120.184,0,0,1-16.513,34.057,143.425,143.425,0,0,1-25.238,27.533,286.425,286.425,0,0,1-32.9,23.709q-15.28,9.209-30.592,17.606a184.18,184.18,0,0,0-27.923,18.73,91.277,91.277,0,0,0-20.649,23.724q-8.023,13.392-8.038,32.512Zm1.561,178.228V530.385h84.814V635.942Z" transform="translate(-163.53 -85.93)" fill="#ffc727"/>
      </g>
      <g id="freepik--Character--inject-56" transform="translate(38.103 24.642)">
        <path id="Path_18701" data-name="Path 18701" d="M221.649,478.113c-3.325,1.061-98.112-.156-101.686-2.5-1.374-.874-2-14.687-2.279-31.419v-.515c0-3.449-.109-7.008-.125-10.6V431.6c-.125-24.13.25-49.181.25-49.181l63.415.64-1.92,48.65-.078,1.935-.39,10.083v1.03s36.039,16.763,39.707,19.729S224.974,477.052,221.649,478.113Z" transform="translate(-32.078 55.701)" fill="#ad6359"/>
        <path id="Path_18702" data-name="Path 18702" d="M221.64,460.442c-3.325,1.061-98.112-.156-101.686-2.5-1.374-.874-2-14.687-2.279-31.419v-.515c0-3.449-.109-7.008-.125-10.6V413.93l61.761.172-.078,1.935-.39,10.083v1.03s36.023,16.7,39.691,19.666S224.964,459.381,221.64,460.442Z" transform="translate(-32.069 73.372)" fill="#ebebeb"/>
        <path id="Path_18703" data-name="Path 18703" d="M221.59,456.107c-2.045.656-38.77.437-67.52-.375-17.949-.484-32.777-1.233-34.166-2.123s-1.982-14.3-2.263-30.717V421.66l61.168.125v1.03s36.086,16.7,39.738,19.682S224.914,455.046,221.59,456.107Z" transform="translate(-32.018 77.707)" fill="#ffc727"/>
        <path id="Path_18704" data-name="Path 18704" d="M218.225,441.762c-15.983-.593-80.459-1.561-96.3-.89-.125,0-.125.094,0,.109,15.827.936,80.3,1.327,96.286,1.046C218.553,442.027,218.553,441.777,218.225,441.762Z" transform="translate(-29.668 88.353)" fill="#263238"/>
        <path id="Path_18705" data-name="Path 18705" d="M167.966,422.088c-6.243-1.249-13.969-.39-18.839,4.027-.187.172,0,.437.265.375a89.16,89.16,0,0,1,18.542-3.605.406.406,0,0,0,.031-.8Z" transform="translate(-14.402 77.654)" fill="#263238"/>
        <path id="Path_18706" data-name="Path 18706" d="M170.856,423.878c-6.243-1.249-13.969-.39-18.839,4.027-.187.172,0,.437.265.375a88.965,88.965,0,0,1,18.48-3.605.406.406,0,0,0,.094-.8Z" transform="translate(-12.782 78.658)" fill="#263238"/>
        <path id="Path_18707" data-name="Path 18707" d="M173.736,425.668c-6.243-1.249-13.969-.39-18.839,4.027-.187.172,0,.437.265.375a89.171,89.171,0,0,1,18.542-3.59.406.406,0,1,0,.031-.812Z" transform="translate(-11.167 79.662)" fill="#263238"/>
        <path id="Path_18708" data-name="Path 18708" d="M173.567,413.913c-2.435-3.434-7.055-1.951-9.708.219a33.479,33.479,0,0,0-9.864,14.281.156.156,0,0,0,.14.219.773.773,0,0,0,.983.8c5.213-1.857,11.019-3.122,15.514-6.587C173.255,420.858,175.862,417.175,173.567,413.913Zm-11.129,11.082c-2.544.983-5.119,1.826-7.617,2.888,1.935-2.778,3.73-5.619,5.947-8.21a40.383,40.383,0,0,1,3.371-3.559c1.9-1.67,9.365-5.2,8.147,1.686C171.632,421.592,165.482,423.839,162.439,424.994Z" transform="translate(-11.638 72.219)" fill="#263238"/>
        <path id="Path_18709" data-name="Path 18709" d="M145.66,425.276c5.151,2.279,11.113,2.247,16.623,2.856a.819.819,0,0,0,.765-1.014.172.172,0,0,0,.094-.25,33.744,33.744,0,0,0-12.892-11.628c-3.122-1.561-7.929-1.873-9.49,2.029S142.648,423.95,145.66,425.276Zm-2.778-4.526c-2.747-6.415,5.322-4.682,7.539-3.5a33.732,33.732,0,0,1,4.1,2.685,96.907,96.907,0,0,1,7.679,6.618c-2.685-.468-5.385-.687-8.085-1.061-3.215-.421-9.646-1.2-11.207-4.745Z" transform="translate(-19.27 73.498)" fill="#263238"/>
        <path id="Path_18710" data-name="Path 18710" d="M154.089,455.289c-17.949-.484-32.777-1.233-34.166-2.123s-1.982-14.3-2.263-30.717C125,429.021,143.288,445.331,154.089,455.289Z" transform="translate(-32.007 78.15)" fill="#263238"/>
        <path id="Path_18711" data-name="Path 18711" d="M105.24,207.48s14.235,160.17,16.545,172.391c.546,2.794.874,17.934,1.093,37.381.484,42.469.2,119.042.2,119.042H189.9S187.916,403.626,184.95,379.2,163.1,207.511,163.1,207.511Z" transform="translate(-38.972 -42.406)" fill="#37474f"/>
        <path id="Path_18712" data-name="Path 18712" d="M179.591,410.86c-10.426-.219-7.429-.3-17.856-.406-5.1,0-38.63-.328-43.406.453a.109.109,0,1,0,0,.218c4.776.78,38.3.5,43.406.437,10.426-.094,7.429-.172,17.856-.39a.156.156,0,1,0,0-.312Z" transform="translate(-31.693 71.385)" fill="#263238"/>
        <path id="Path_18713" data-name="Path 18713" d="M132.736,446.1q-.125-14.547-.219-29.078c0-9.365,0-18.73-.5-28.094-.905-18.995-4.682-37.662-7.492-56.439s-5.026-37.631-7.1-56.5c-2.326-21.164-4.37-42.376-6.54-63.556,0-.14-.25-.14-.234,0,3.122,37.834,6.665,75.652,11.893,113.252q1.967,14.047,4.277,28c1.561,9.365,3.122,18.854,3.855,28.391s.843,18.73.936,28.094q.172,14.547.3,29.062c.2,21.508.406,54.628.624,76.136a.328.328,0,0,0,.64,0C133.048,496.073,132.876,465.278,132.736,446.1Z" transform="translate(-35.938 -39.69)" fill="#263238"/>
        <path id="Path_18714" data-name="Path 18714" d="M96.21,207.48s28.329,160.17,30.639,172.391c.546,2.794.874,17.934,1.093,37.381h0L159.875,207.48Z" transform="translate(-44.036 -42.406)" fill="#263238"/>
        <path id="Path_18715" data-name="Path 18715" d="M171.222,484.318c-3.387.827-97.862-7.117-101.265-9.693-1.311-.968-.952-14.8,0-31.5V442.6c.187-3.434.39-6.977.64-10.567l.094-1.561c1.561-24.083,3.73-49.04,3.73-49.04l63.2,5.213-5.354,48.385-.2,1.92-1.093,10.036-.109,1.03s34.79,19.214,38.24,22.444S174.609,483.491,171.222,484.318Z" transform="translate(-59.238 55.146)" fill="#ad6359"/>
        <path id="Path_18716" data-name="Path 18716" d="M171.222,466.7c-3.387.827-97.862-7.117-101.265-9.693-1.311-.968-.952-14.8,0-31.5v-.531c.187-3.434.39-6.977.64-10.567l.094-1.561,61.574,4.542-.2,1.92-1.093,10.036-.109,1.03s34.79,19.214,38.24,22.444S174.609,465.87,171.222,466.7Z" transform="translate(-59.238 72.766)" fill="#ebebeb"/>
        <path id="Path_18717" data-name="Path 18717" d="M171.222,462.34c-3.387.827-97.862-7.117-101.265-9.693-1.311-.968-.952-14.8,0-31.5v-.531l61.012,4.448-.109,1.03s34.79,19.213,38.24,22.444S174.609,461.513,171.222,462.34Z" transform="translate(-59.238 77.124)" fill="#ffc727"/>
        <path id="Path_18718" data-name="Path 18718" d="M168.525,447.71c-15.889-1.732-80.147-7.2-95.989-7.71-.125,0-.14.094,0,.109,15.7,2.06,80.007,7.008,95.974,7.8C168.9,447.991,168.931,447.8,168.525,447.71Z" transform="translate(-57.368 87.992)" fill="#263238"/>
        <path id="Path_18719" data-name="Path 18719" d="M119.943,424.286c-6.243-1.686-13.907-1.373-19.073,2.685-.2.156,0,.453.234.406a88.124,88.124,0,0,1,18.73-2.294.406.406,0,0,0,.109-.8Z" transform="translate(-41.469 78.64)" fill="#263238"/>
        <path id="Path_18720" data-name="Path 18720" d="M122.706,426.276c-6.243-1.686-13.922-1.374-19.089,2.685-.187.156,0,.453.234.406a88.249,88.249,0,0,1,18.73-2.294.406.406,0,0,0,.125-.8Z" transform="translate(-39.925 79.756)" fill="#263238"/>
        <path id="Path_18721" data-name="Path 18721" d="M125.456,428.266c-6.243-1.686-13.922-1.374-19.089,2.685-.187.156,0,.453.25.406a87.984,87.984,0,0,1,18.73-2.294.406.406,0,0,0,.109-.8Z" transform="translate(-38.382 80.872)" fill="#263238"/>
        <path id="Path_18722" data-name="Path 18722" d="M126.408,416.472c-2.17-3.605-6.883-2.466-9.693-.484a33.448,33.448,0,0,0-10.926,13.548c0,.125,0,.2.125.234a.78.78,0,0,0,.921.858c5.322-1.483,11.222-2.4,15.936-5.478C125.643,423.293,128.5,419.875,126.408,416.472ZM114.53,426.727c-2.607.8-5.229,1.451-7.8,2.341a99.516,99.516,0,0,1,6.509-7.8,36.263,36.263,0,0,1,3.621-3.309c2.013-1.561,9.693-4.542,8.007,2.248-.89,3.777-7.2,5.588-10.3,6.524Z" transform="translate(-38.664 73.483)" fill="#263238"/>
        <path id="Path_18723" data-name="Path 18723" d="M97.48,426.065c4.979,2.638,10.926,3.028,16.373,4.011.562.109.905-.468.843-.937a.172.172,0,0,0,.094-.25A33.4,33.4,0,0,0,102.755,416.4c-2.966-1.732-7.8-2.435-9.6,1.342S94.577,424.52,97.48,426.065Zm-2.45-4.682c-2.294-6.6,5.635-4.308,7.8-2.965a36.306,36.306,0,0,1,3.9,2.981,97.146,97.146,0,0,1,7.2,7.148c-2.653-.656-5.322-1.077-7.991-1.561-3.215-.765-9.615-1.982-10.91-5.634Z" transform="translate(-46.039 73.973)" fill="#263238"/>
        <path id="Path_18724" data-name="Path 18724" d="M134.456,539.939,67.7,537.114s18.23-146.5,18.558-155.534c.874-23.412,16.4-174.17,16.4-174.17H184.2s-5.151,34.822-13.938,56.891a101.7,101.7,0,0,0-17.06,7.8s-7.648,99.72-7.929,112.159C144.648,408.894,134.456,539.939,134.456,539.939Z" transform="translate(-60.025 -42.445)" fill="#37474f"/>
        <path id="Path_18725" data-name="Path 18725" d="M131.349,413.577c-10.395-.656-7.4-.609-17.824-1.155-5.088-.265-38.583-1.967-43.375-1.389-.109,0-.109.187,0,.219,4.682.983,38.255,2.123,43.343,2.279,10.426.343,7.445.14,17.871.359a.156.156,0,0,0-.016-.312Z" transform="translate(-58.697 71.681)" fill="#263238"/>
        <path id="Path_18726" data-name="Path 18726" d="M105.169,213.245c-3.028,37.974-6.134,75.964-9.615,113.939S88,403.288,83.068,441.2c-2.763,21.149-5.884,50.976-9.178,72.078,0,.14.187.2.218,0,6.727-37.459,11.675-84.034,15.873-121.883S97.63,315.586,100.7,277.628c1.732-21.477,3.293-42.969,4.948-64.446C105.668,212.979,105.278,212.979,105.169,213.245Z" transform="translate(-56.553 -39.289)" fill="#263238"/>
        <path id="Path_18727" data-name="Path 18727" d="M142.489,242.933a126.048,126.048,0,0,0-19.963,9.365.223.223,0,1,0,.187.406c6.727-2.888,13.579-5.65,20.134-8.912a.465.465,0,0,0-.359-.858Z" transform="translate(-29.35 -22.544)" fill="#263238"/>
        <path id="Path_18728" data-name="Path 18728" d="M141.564,213.42c0-.234-.421-.281-.421,0,0,7.976-.453,15-1.124,22.476-.312,3.465-3.122,22.6-9.115,21.211-1-.234-1.561-1.233-1.67-2.747a23.006,23.006,0,0,1,.8-5.869c.656-4.011,1.2-8.023,1.561-12.081a109.833,109.833,0,0,0-.25-22.647.2.2,0,0,0-.39,0,207.387,207.387,0,0,1-1.826,31.216c-.749,4.979-3.262,12.486,1.951,13.236s8.741-11.768,9.365-15.2a114.283,114.283,0,0,0,1.124-29.593Z" transform="translate(-26.287 -39.183)" fill="#263238"/>
        <path id="Path_18729" data-name="Path 18729" d="M130.595,241.8a29.652,29.652,0,0,0-1.342,3.964,8.709,8.709,0,0,0-.562,3.262c0,.219.3.234.406.094A11.551,11.551,0,0,0,130.5,246c.453-1.233.937-2.45,1.358-3.7a.68.68,0,0,0-1.264-.5Z" transform="translate(-25.822 -23.398)" fill="#263238"/>
        <path id="Path_18730" data-name="Path 18730" d="M121.222,218.279a10.161,10.161,0,0,0-.25-2.482.14.14,0,0,0-.25,0,10.927,10.927,0,0,0-.281,2.154,24.377,24.377,0,0,1-.281,2.466,36.164,36.164,0,0,1-.874,5.01,17.778,17.778,0,0,1-4.589,8.241,23.693,23.693,0,0,1-7.8,5.1,88.358,88.358,0,0,1-9.849,2.856.125.125,0,1,0,0,.25,28.672,28.672,0,0,0,10.77-2.123,23.177,23.177,0,0,0,8.1-5.166,18,18,0,0,0,4.682-8.475,25.924,25.924,0,0,0,.656-5.026A24.114,24.114,0,0,0,121.222,218.279Z" transform="translate(-43.638 -37.784)" fill="#263238"/>
        <path id="Path_18731" data-name="Path 18731" d="M178.291,120.577c5.026,6.072,10.489,22.476,10.286,26.955s-27.814,14.656-31.716,12.221-19.26-24.13-19.4-32.168S173.078,114.3,178.291,120.577Z" transform="translate(-20.903 -92.697)" fill="#ad6359"/>
        <path id="Path_18732" data-name="Path 18732" d="M142.349,115.267c-2.528-2.638-10.707-10.52-14.344-6.961-2.279,2.216,3.215,8.288,5.525,10.691,4.76,4.932,8.444,13.657,10.161,17.918s9.755-4.152,9.755-4.152S148.951,122.119,142.349,115.267Z" transform="translate(-26.51 -98.532)" fill="#ad6359"/>
        <path id="Path_18733" data-name="Path 18733" d="M142.438,139.285s2.825,7.586,7.429,7.414,3.434-6.7,3.371-7.164c.14.406,2.919,7.3,7.539,6.665s2.653-7.055,2.513-7.461c.25.328,3.808,4.682,7.2,3.387,5.837-2.216-2.919-13.563-2.076-18.542,0,0,8.616.484,8.865.437,0,0-8.116-10.926-14.906-11.737a4.339,4.339,0,0,0-4.682,2.841s-2.232-3.824-5.884-3.434c-1.873.2-3.215,3.387-3.215,3.387a5.432,5.432,0,0,0-5.135-2.435c-2.575.421-3.855,3.637-4,4.885C138.364,127.08,142.438,139.285,142.438,139.285Z" transform="translate(-19.887 -96.141)" fill="#ad6359"/>
        <path id="Path_18734" data-name="Path 18734" d="M139.849,114.86h-.125a38.864,38.864,0,0,0,2.825,22.944c.109.218.515.14.437-.125A79.945,79.945,0,0,1,139.849,114.86Z" transform="translate(-19.983 -94.347)" fill="#263238"/>
        <path id="Path_18735" data-name="Path 18735" d="M145.471,113.805c0-.094-.14-.094-.156,0A36.351,36.351,0,0,0,150,138.622c.172.265.578.328.406,0C147.546,133.44,145.315,121.032,145.471,113.805Z" transform="translate(-16.786 -94.978)" fill="#263238"/>
        <path id="Path_18736" data-name="Path 18736" d="M157.427,137.816c-4.277-7.336-5.791-15.3-6.15-23.709,0-.109-.156-.094-.187,0-.936,4.167-.14,9.49.827,13.595a22.4,22.4,0,0,0,5.26,10.255C157.255,138.081,157.427,137.972,157.427,137.816Z" transform="translate(-13.493 -94.812)" fill="#263238"/>
        <path id="Path_18737" data-name="Path 18737" d="M141.3,135.007a25.832,25.832,0,0,0,2.4,4,8.584,8.584,0,0,0,3.371,2.934,2.809,2.809,0,0,0,2.013,0,4.121,4.121,0,0,0,1.717-1.171,5.042,5.042,0,0,0,.843-3.98l-.577-3.371,1.717,2.966a14.187,14.187,0,0,0,2.841,3.543,4.948,4.948,0,0,0,3.808,1.467,2.856,2.856,0,0,0,2.653-2.435,8.788,8.788,0,0,0-.546-4.308l-1.389-3.808,2.544,3.122a13.673,13.673,0,0,0,2.419,2.326,5.447,5.447,0,0,0,2.9,1.155,2.591,2.591,0,0,0,2.372-1.311,5.7,5.7,0,0,0,.234-3.122,45.148,45.148,0,0,0-1.873-6.774c-.375-1.124-.749-2.263-1.061-3.418a8.475,8.475,0,0,1-.406-3.527,9.365,9.365,0,0,0,.718,3.434c.406,1.108.858,2.2,1.311,3.309a38.3,38.3,0,0,1,2.263,6.852,6.7,6.7,0,0,1-.156,3.824,3.652,3.652,0,0,1-3.434,2.091,6.618,6.618,0,0,1-3.637-1.342,14.561,14.561,0,0,1-2.731-2.544l1.155-.687a9.942,9.942,0,0,1,.7,5.073,4.136,4.136,0,0,1-1.342,2.482,4.682,4.682,0,0,1-2.544,1.061,6.243,6.243,0,0,1-4.838-1.857,14.922,14.922,0,0,1-3.122-3.933l1.139-.406a5.993,5.993,0,0,1-1.311,4.854,5.073,5.073,0,0,1-2.185,1.342,3.527,3.527,0,0,1-2.56-.187,8.694,8.694,0,0,1-3.418-3.387A20.792,20.792,0,0,1,141.3,135.007Z" transform="translate(-18.749 -91.863)" fill="#263238"/>
        <path id="Path_18738" data-name="Path 18738" d="M155.278,153.591s-29.765-15.218-18.105-23.927c3.449-2.591,20.759-9.1,22.132-5.65,1.779,4.448-4.948,8.522-9.568,10.395,0,0,10.848,3.762,10.489,12.081a8.288,8.288,0,0,1-4.948,7.1Z" transform="translate(-22.583 -89.767)" fill="#ad6359"/>
        <path id="Path_18739" data-name="Path 18739" d="M135.61,130.71a16.934,16.934,0,0,1,4.152-2.934,40.194,40.194,0,0,1,4.682-2.123,58.875,58.875,0,0,1,9.833-2.9,9.146,9.146,0,0,1,2.716-.156,3.575,3.575,0,0,1,1.561.468,2.529,2.529,0,0,1,.655.546,2.342,2.342,0,0,1,.421.734,4.261,4.261,0,0,1,0,2.981,7.679,7.679,0,0,1-1.436,2.388A15.217,15.217,0,0,1,154.059,133a33.356,33.356,0,0,1-4.682,2.216v-1.108a21.116,21.116,0,0,1,3.512,1.764,18.807,18.807,0,0,1,3.122,2.357,13.2,13.2,0,0,1,2.372,3.122,10.145,10.145,0,0,1,1.233,3.637,11.565,11.565,0,0,0-1.561-3.418,13.937,13.937,0,0,0-2.529-2.716,17.791,17.791,0,0,0-3.122-2.091,19.5,19.5,0,0,0-3.387-1.467l-1.452-.453,1.4-.656a36.847,36.847,0,0,0,4.417-2.279,15.249,15.249,0,0,0,3.746-3.044,4.214,4.214,0,0,0,1.186-3.933c-.343-1.093-2.2-1.046-3.777-.812s-3.246.656-4.885,1.061-3.246.858-4.854,1.374a32.636,32.636,0,0,0-9.193,4.152Z" transform="translate(-21.94 -90.032)" fill="#263238"/>
        <path id="Path_18740" data-name="Path 18740" d="M129.123,163.733c26.315,32.48,64.57,53.52,74.013,46.668s-22.382-42.719-22.928-43.25c-1.857-1.779-15.936-9.1-41.5-19.869C113.624,136.716,117.37,149.234,129.123,163.733Z" transform="translate(-30.687 -78.37)" fill="#ad6359"/>
        <path id="Path_18741" data-name="Path 18741" d="M169.183,160.471l-19.822,26.065s-16.638-17.169-25.441-28.531-7.929-20.2,11.768-12.861a247.14,247.14,0,0,1,33.495,15.327Z" transform="translate(-31.492 -78.869)" fill="#ffc727"/>
        <path id="Path_18742" data-name="Path 18742" d="M137.107,174.291c2.419-3.559,4.948-7.055,7.539-10.473,1.3-1.686,2.544-3.4,3.871-5.073s2.841-3.34,4.2-5.057c.094-.125.281,0,.187.125-1.249,1.717-2.372,3.512-3.621,5.229s-2.622,3.5-3.949,5.244q-3.918,5.151-8.069,10.114C137.185,174.494,136.966,174.4,137.107,174.291Z" transform="translate(-21.127 -72.601)" fill="#263238"/>
        <path id="Path_18743" data-name="Path 18743" d="M158.809,172.275l-9.49,12.486s-16.638-17.169-25.441-28.531l-.843-1.108-.359-.515-.546-.8q-.7-1.03-1.264-2.013c-.14-.234-.265-.468-.39-.7a19.072,19.072,0,0,1-1.561-3.73,9.516,9.516,0,0,1-.265-1.217v-.577C127.3,151.564,147.587,164.69,158.809,172.275Z" transform="translate(-31.452 -77.125)" fill="#263238"/>
        <path id="Path_18744" data-name="Path 18744" d="M177.562,259.82s-90.324,1.561-90.854,1c-1.4-1.561,16.841-94.569,35.711-113.736,6.665-6.774,20.415-4.011,22.71-2.9,5.291,2.56,10.27,8.085,14.437,18.324C167.9,182.982,178.7,258.353,177.562,259.82Z" transform="translate(-49.408 -78.748)" fill="#ffc727"/>
        <path id="Path_18745" data-name="Path 18745" d="M149.664,146.267H122.3l.14-.156a12.128,12.128,0,0,1,2.107-1.7h22.71a18.732,18.732,0,0,1,2.4,1.857Zm3.012,3.122H119.728c-.437.577-.858,1.2-1.28,1.857h35.664c-.453-.656-.921-1.233-1.327-1.857Zm3.4,4.979h-39.52c-.343.609-.687,1.233-1.015,1.873h41.6c-.328-.64-.671-1.28-1.03-1.873Zm2.544,4.995H113.968l-.89,1.857H159.45c-.25-.64-.515-1.264-.8-1.842Zm1.982,4.979h-48.9l-.8,1.857h50.336c-.2-.578-.406-1.264-.656-1.857Zm1.561,4.979H109.645c-.234.624-.484,1.233-.734,1.873h53.8Zm1.342,4.979H107.756c-.218.624-.453,1.233-.671,1.873h56.923a16.427,16.427,0,0,1-.468-1.873Zm1.217,4.995H105.961c-.219.609-.421,1.233-.624,1.857h59.81Zm1.124,4.979H104.4c-.2.609-.39,1.233-.593,1.857h62.557c-.219-.624-.343-1.249-.484-1.779Zm1.061,4.979H102.84c-.2.609-.39,1.233-.578,1.873H167.41c-.2-.624-.328-1.249-.468-1.873Zm1.015,4.979H101.279c-.187.624-.375,1.249-.546,1.873h67.661Zm.968,4.995H99.812c-.187.624-.359,1.233-.531,1.857h69.986c-.109-.624-.218-1.249-.343-1.857Zm.921,4.979H98.423c-.172.624-.343,1.249-.5,1.857h72.265c-.109-.624-.234-1.233-.343-1.857Zm.89,4.979H97.1c-.172.624-.328,1.249-.484,1.873h74.45q-.14-.937-.328-1.873Zm.89,4.995H95.8c-.14.624-.3,1.233-.453,1.857h76.573c-.094-.609-.2-1.233-.3-1.857Zm.812,4.979H94.568c-.14.624-.3,1.249-.437,1.857h78.618c-.094-.609-.2-1.233-.312-1.857Zm.812,4.979H93.381c-.14.64-.281,1.264-.437,1.873h80.6c-.094-.624-.187-1.233-.3-1.873Zm.8,4.979H92.242c-.14.624-.281,1.264-.421,1.873h82.488c-.094-.609-.187-1.233-.265-1.873Zm.734,4.995H91.134c-.125.624-.265,1.249-.39,1.857h84.283Zm.718,4.979H90.072c-.125.64-.25,1.249-.375,1.857h86.063c-.094-.609-.172-1.233-.265-1.857Zm.687,4.979H89.089q-.218.968-.375,1.873h87.717a14.62,14.62,0,0,1-.234-1.873Zm.624,4.979H88.137c-.125.656-.234,1.28-.343,1.873H177.04q-.094-.89-.234-1.873Zm.577,4.995H87.232c-.109.671-.187,1.3-.281,1.857h90.527a13.309,13.309,0,0,0-.094-1.857ZM86.639,259.02a1.67,1.67,0,0,0,0,.827c.421.421,56.439-.437,80.3-.827Z" transform="translate(-49.433 -77.776)" fill="#030402" opacity="0.1"/>
        <path id="Path_18746" data-name="Path 18746" d="M140.944,157.509c-6.087,8.35-37.3,42.86-38.458,46.059s6.072,10.27,5.947,11.6c-.468,5.4-12.127,41.33-16.794,37.678-6.15-4.807-32.184-39.239-28.5-54.144S127.614,148,137.26,144.9,146.953,149.268,140.944,157.509Z" transform="translate(-62.782 -77.905)" fill="#ad6359"/>
        <path id="Path_18747" data-name="Path 18747" d="M103.521,189.374,85.79,164.479s19.838-13.017,33.1-18.574,19.807-2.466,7.679,14.687a301.148,301.148,0,0,1-23.053,28.781Z" transform="translate(-49.88 -78.351)" fill="#ffc727"/>
        <path id="Path_18748" data-name="Path 18748" d="M89.211,155.872q4.214,4.885,8.194,9.989c1.311,1.67,2.638,3.325,3.9,5.026s2.513,3.605,3.84,5.354c.094.125-.094.281-.187.156-1.342-1.561-2.778-3.122-4.121-4.838s-2.716-3.434-4.058-5.151c-2.653-3.4-5.229-6.883-7.71-10.411C88.977,155.9,89.133,155.778,89.211,155.872Z" transform="translate(-48.056 -71.366)" fill="#263238"/>
        <path id="Path_18749" data-name="Path 18749" d="M97.14,180.383c2.716-3.605,5.915-6.821,8.85-10.239s5.853-6.946,8.647-10.5c0,0,.2,0,.14.094-1.3,1.857-2.56,3.73-3.918,5.541-.671.89-1.374,1.764-2.091,2.638l1.046-.858a40.027,40.027,0,0,1,3.325-2.248s.125,0,0,.094a37.715,37.715,0,0,1-3.122,2.591c-.78.593-1.561,1.139-2.388,1.686l-1.249,1.561a74.235,74.235,0,0,1-9.068,9.755A.1.1,0,1,1,97.14,180.383Z" transform="translate(-43.53 -69.235)" fill="#263238"/>
        <path id="Path_18750" data-name="Path 18750" d="M102.021,241.742c4.167-2.825-1.561-6.134-1.561-6.134s9.365,2.778,12.486-1.795-4-8.163-4.5-8.444c.5.156,9.178,2.466,11.893-2.45s-4.9-7.664-5.4-7.8c.515,0,7.273-.3,8.491-4.511,2.076-7.227-17.341-8.069-21.523-12.486,0,0,1.873-9.552,2.029-9.817a10.925,10.925,0,0,1-5.525,4.682c-4.2,1.186-7.976,1.873-9.677,3.886a5.525,5.525,0,0,0-.624,6.555s-5.307-.609-7.57,3.2c-1.155,1.951.952,5.556.952,5.556a6.571,6.571,0,0,0-6.072,3.122c-1.452,2.809.89,5.978.89,5.978s-4.245,1.561-4.792,4.932C70.477,232.97,93.093,247.767,102.021,241.742Z" transform="translate(-57.901 -53.162)" fill="#ad6359"/>
        <path id="Path_18751" data-name="Path 18751" d="M74.864,209.8s-.172,0-.109.109a46.824,46.824,0,0,0,24.192,13.86c.3,0,.515-.406.2-.531A95.99,95.99,0,0,1,74.864,209.8Z" transform="translate(-56.076 -41.105)" fill="#263238"/>
        <path id="Path_18752" data-name="Path 18752" d="M77.918,203.568a.1.1,0,0,0-.125.156,43.952,43.952,0,0,0,27.33,13.47c.359,0,.718-.312.3-.375C98.427,215.758,84.786,208.937,77.918,203.568Z" transform="translate(-54.385 -44.612)" fill="#263238"/>
        <path id="Path_18753" data-name="Path 18753" d="M109.753,209.345c-10.176-1.155-18.964-5.463-27.345-11.175-.109,0-.2.078-.14.172,3.34,3.918,9.068,7.008,13.735,9.037a26.908,26.908,0,0,0,13.7,2.326A.181.181,0,0,0,109.753,209.345Z" transform="translate(-51.866 -47.627)" fill="#263238"/>
        <path id="Path_18754" data-name="Path 18754" d="M75.129,221a6.509,6.509,0,0,1-1.561-6.633,4.932,4.932,0,0,1,2.419-2.435,8.3,8.3,0,0,1,3.98-.359,6.368,6.368,0,0,1-.109-7.211,4.87,4.87,0,0,1,3.122-1.639,15.436,15.436,0,0,1,4.136.156,5.65,5.65,0,0,1-1.2-4.917,6.149,6.149,0,0,1,3.746-4.1,29.655,29.655,0,0,1,6.571-1.561,14.658,14.658,0,0,0,3.356-.921,6.337,6.337,0,0,0,2.794-2.5c.125-.187.125,0,0,.172a7.68,7.68,0,0,1-1.654,1.967,9.941,9.941,0,0,1-2.263,1.483,42.759,42.759,0,0,1-6.243,1.826,8.74,8.74,0,0,0-4.682,3.122,5.244,5.244,0,0,0-.187,5.494s0,.2-.14.187a15.311,15.311,0,0,0-3.7.437,5,5,0,0,0-2.591,1.561,6.712,6.712,0,0,0-.312,6.68,10.926,10.926,0,0,0-3.886,1,4.916,4.916,0,0,0-1.842,2.029,5.791,5.791,0,0,0,.609,6.04.172.172,0,0,1,0,.078h0s-1.358.562-1.42.562h0A9.591,9.591,0,0,1,75.13,221Z" transform="translate(-56.919 -52.882)" fill="#263238"/>
        <path id="Path_18755" data-name="Path 18755" d="M131.229,164.138c-4.963,1.826-14.672-4.932-18.9-10.832-.281-.406-.562-17.965-.968-21.43-.094-.718,22.429,2.685,22.429,2.685a55.706,55.706,0,0,0-.5,13.579C133.352,148.639,136.021,162.389,131.229,164.138Z" transform="translate(-35.54 -84.861)" fill="#ad6359"/>
        <path id="Path_18756" data-name="Path 18756" d="M133.789,134.559s-.25,1.452-.453,3.605c-6.243,7.664-16.264,8.475-21.352,8.3-.172-5.447-.375-12.486-.624-14.594C111.266,131.172,133.789,134.559,133.789,134.559Z" transform="translate(-35.54 -84.859)" fill="#263238"/>
        <path id="Path_18757" data-name="Path 18757" d="M114.754,107.87s-7.18,2.778-8.647,9.958,0,14.8.593,15.187S114.754,107.87,114.754,107.87Z" transform="translate(-38.84 -98.267)" fill="#263238"/>
        <path id="Path_18758" data-name="Path 18758" d="M143.861,118.788c1.842,7.913-3.746,30.061-9.615,34.681-8.491,6.711-21.664,6.524-27.189-3.512-5.338-9.724,2.466-38.443,8.943-42.579C125.522,101.307,141.1,107.082,143.861,118.788Z" transform="translate(-38.948 -99.914)" fill="#ad6359"/>
        <path id="Path_18759" data-name="Path 18759" d="M115.865,121.78s.109.094.094.156c-.312,1.561-.421,3.325.89,4.074v.078C115.163,125.557,115.319,123.169,115.865,121.78Z" transform="translate(-33.224 -90.467)" fill="#263238"/>
        <path id="Path_18760" data-name="Path 18760" d="M117.467,120.9c2.513.234,1.842,5.229-.468,5.01S115.376,120.7,117.467,120.9Z" transform="translate(-33.188 -90.962)" fill="#263238"/>
        <path id="Path_18761" data-name="Path 18761" d="M110.93,120.79a.142.142,0,0,0-.14.125c-.14,1.561-.562,3.293-2.029,3.637v.094C110.508,124.614,111.039,122.273,110.93,120.79Z" transform="translate(-36.998 -91.022)" fill="#263238"/>
        <path id="Path_18762" data-name="Path 18762" d="M110.244,119.653c-2.466-.5-3.293,4.464-1,4.932S112.3,120.074,110.244,119.653Z" transform="translate(-37.483 -91.679)" fill="#263238"/>
        <path id="Path_18763" data-name="Path 18763" d="M116.6,130.061c-.406.328-.827.8-1.389.8a4.136,4.136,0,0,1-1.639-.531,2.06,2.06,0,0,0,1.889,1.015,1.561,1.561,0,0,0,1.342-1.264S116.66,129.983,116.6,130.061Z" transform="translate(-34.301 -85.84)" fill="#263238"/>
        <path id="Path_18764" data-name="Path 18764" d="M111.827,130.881s-.656,2.248-.812,3.34a22.273,22.273,0,0,1,6.134,1.826c.453.219.515-.172,0-.577a9.365,9.365,0,0,0-5.088-2.06c0-.312,1.077-3.449.905-3.5a9.162,9.162,0,0,0-2.513.2c1.217-4.682,3.122-9.24,4.339-14.047,0-.172-.2-.265-.281-.125A80.353,80.353,0,0,0,109.2,130.8C109,131.49,111.358,131.006,111.827,130.881Z" transform="translate(-36.756 -93.778)" fill="#263238"/>
        <path id="Path_18765" data-name="Path 18765" d="M119.069,121.274a14.023,14.023,0,0,1-1.561-1.249,3.573,3.573,0,0,1-1.389-1.561,1.015,1.015,0,0,1,.562-1.139,2.56,2.56,0,0,1,2.56.578,3.746,3.746,0,0,1,1.561,2.263,1.108,1.108,0,0,1-1.732,1.108Z" transform="translate(-32.885 -93.036)" fill="#263238"/>
        <path id="Path_18766" data-name="Path 18766" d="M109.139,117.3c.687-.109,1.311-.3,1.982-.468a3.247,3.247,0,0,0,1.935-.858,1.061,1.061,0,0,0,0-1.28,2.607,2.607,0,0,0-2.575-.546,3.824,3.824,0,0,0-2.372,1.4,1.124,1.124,0,0,0,1.03,1.748Z" transform="translate(-37.471 -94.821)" fill="#263238"/>
        <path id="Path_18767" data-name="Path 18767" d="M139.584,139.508c-4.589-.453-2.091-20.7-2.091-20.7a29.375,29.375,0,0,1-8.787,1.561,39.817,39.817,0,0,1-8.943-1.342c-.624-.234,7.664-2.575,7.664-2.575s-20.384,1.779-21.071-2.06c-.25-1.327,3.543-13.407,20.462-12.643,12.486.562,18.308,13.61,18.308,13.61s6.072,6.758,5.026,9.817C148.371,130.549,144.453,139.992,139.584,139.508Z" transform="translate(-38.354 -101.718)" fill="#263238"/>
        <path id="Path_18768" data-name="Path 18768" d="M126.516,127.83s5.7-6.805,8.834-4.682-1.561,12.252-5.588,13.36a3.949,3.949,0,0,1-5.073-2.575Z" transform="translate(-28.064 -89.93)" fill="#ad6359"/>
        <path id="Path_18769" data-name="Path 18769" d="M133.16,124.82v.109a9.927,9.927,0,0,0-5.666,5.744,2.185,2.185,0,0,1,3.293-.312.094.094,0,0,1-.094.14,2.45,2.45,0,0,0-2.731.609,11.815,11.815,0,0,0-1.452,2.045c-.156.234-.577,0-.453-.2h0C126.324,129.424,129.43,124.836,133.16,124.82Z" transform="translate(-27.31 -88.762)" fill="#263238"/>
        <path id="Path_18770" data-name="Path 18770" d="M189.6,214.05c12.674-9.786.562-59.467-6.805-77.759-2.17-5.385-36.585,4.682-34.978,10.723C157.013,181.179,175.727,224.773,189.6,214.05Z" transform="translate(-15.124 -83.189)" fill="#ad6359"/>
        <path id="Path_18771" data-name="Path 18771" d="M151.45,154.62l3.793,9.365c1.3,3.122,2.56,6.243,3.964,9.365s2.763,6.134,4.2,9.178,3.028,6.025,4.589,9.021a80.168,80.168,0,0,1-5.385-8.6c-1.561-2.981-3.122-6.04-4.479-9.131s-2.607-6.243-3.73-9.458S152.308,157.913,151.45,154.62Z" transform="translate(-13.057 -72.05)" fill="#263238"/>
      </g>
    </g>
  </g>
</svg>
