<svg xmlns="http://www.w3.org/2000/svg" width="113.4" height="64.084" viewBox="0 0 113.4 64.084">
  <g id="Group_16080" data-name="Group 16080" transform="translate(-3.337 -27.926)">
    <path id="Path_18470" data-name="Path 18470" d="M44.884,56.583a24.766,24.766,0,0,0-7.647-8.006,16.42,16.42,0,0,1-22.655,0,25.186,25.186,0,0,0-11.245,20.7v7.951H33.725A29.282,29.282,0,0,1,44.884,56.583Z" transform="translate(0 5.186)" fill="#006980"/>
    <path id="Path_18471" data-name="Path 18471" d="M38.026,41.791A13.865,13.865,0,1,0,24.162,55.655,13.88,13.88,0,0,0,38.026,41.791Z" transform="translate(1.748)" fill="#006980"/>
    <path id="Path_18472" data-name="Path 18472" d="M102.316,69.276a25.185,25.185,0,0,0-11.245-20.7,16.42,16.42,0,0,1-22.655,0,24.766,24.766,0,0,0-7.647,8.006A29.285,29.285,0,0,1,71.928,77.225h30.388Z" transform="translate(14.421 5.185)" fill="#006980"/>
    <path id="Path_18473" data-name="Path 18473" d="M92.582,41.791A13.865,13.865,0,1,0,78.718,55.655,13.88,13.88,0,0,0,92.582,41.791Z" transform="translate(15.447)" fill="#006980"/>
    <path id="Path_18474" data-name="Path 18474" d="M64.839,55.433a18.119,18.119,0,0,1-22.825,0A26.464,26.464,0,0,0,29.665,77.589V85.1H77.188V77.589A26.467,26.467,0,0,0,64.839,55.433Z" transform="translate(6.611 6.907)" fill="#e59f03"/>
    <path id="Path_18475" data-name="Path 18475" d="M51.778,62.8A15.552,15.552,0,1,0,36.227,47.248,15.57,15.57,0,0,0,51.778,62.8Z" transform="translate(8.259 0.947)" fill="#e59f03"/>
  </g>
</svg>
