<svg xmlns="http://www.w3.org/2000/svg" width="80" height="80" viewBox="0 0 80 80">
  <g id="noun_code_1620404" transform="translate(-10 -10)">
    <path id="Path_18476" data-name="Path 18476" d="M75.69,40.977l-9.311-9.31L62.844,35.2l8.132,8.131-8.132,8.131L66.38,55l9.311-9.31A3.333,3.333,0,0,0,75.69,40.977Z" fill="#e59f03"/>
    <path id="Path_18477" data-name="Path 18477" d="M37.155,35.2,33.62,31.667l-9.311,9.31a3.333,3.333,0,0,0,0,4.714L33.62,55l3.535-3.535-8.132-8.131Z" fill="#e59f03"/>
    <path id="Path_18478" data-name="Path 18478" d="M44.1,58.334h5.127l6.669-30H50.771Z" fill="#e59f03"/>
    <path id="Path_18479" data-name="Path 18479" d="M83.333,10H16.667A6.688,6.688,0,0,0,10,16.667V70a6.688,6.688,0,0,0,6.667,6.667h30v6.667h-10A6.664,6.664,0,0,0,30,90l40-.007a6.669,6.669,0,0,0-6.667-6.666h-10v-6.66h30A6.688,6.688,0,0,0,90,70V16.667A6.688,6.688,0,0,0,83.333,10Zm0,60H16.667V16.667H83.333Z" fill="#006980"/>
  </g>
</svg>
