<svg id="noun_connect_users_388636" data-name="noun_connect users_388636" xmlns="http://www.w3.org/2000/svg" width="113.402" height="113.402" viewBox="0 0 113.402 113.402">
  <g id="Group_16078" data-name="Group 16078" transform="translate(0 0)">
    <ellipse id="Ellipse_561" data-name="Ellipse 561" cx="12.77" cy="12.724" rx="12.77" ry="12.724" transform="translate(13.114)" fill="#e59f03"/>
    <path id="Path_18467" data-name="Path 18467" d="M26.485,42.662H51.766V28.045c0-11.865-12.944-12.033-12.944-12.033H12.944S0,16.182,0,28.047V42.663Z" transform="translate(0 12.36)" fill="#e59f03"/>
  </g>
  <g id="Group_16079" data-name="Group 16079" transform="translate(61.636 58.379)">
    <ellipse id="Ellipse_562" data-name="Ellipse 562" cx="12.77" cy="12.724" rx="12.77" ry="12.724" transform="translate(13.114)" fill="#006980"/>
    <path id="Path_18468" data-name="Path 18468" d="M61.27,75.609H86.551V60.992c0-11.865-12.944-12.033-12.944-12.033H47.729s-12.944.17-12.944,12.035V75.61Z" transform="translate(-34.785 -20.587)" fill="#006980"/>
  </g>
  <path id="Path_18469" data-name="Path 18469" d="M12.947,35.441V77.574h30.92V70.486H20.035V35.441Z" transform="translate(9.994 27.357)" fill="#e59f03"/>
</svg>
